<?xml version="1.0" encoding="utf-8" ?>
<svg baseProfile="tiny" height="173.4050807568877mm" version="1.2" viewBox="-0.1 -0.1 539.2901699437494 173.4050807568877" width="539.2901699437494mm" xmlns="http://www.w3.org/2000/svg" xmlns:ev="http://www.w3.org/2001/xml-events" xmlns:xlink="http://www.w3.org/1999/xlink"><defs /><line stroke="black" stroke-width="0.2" x1="0.0" x2="536.0" y1="0.0" y2="0.0" /><line stroke="black" stroke-width="0.2" x1="3.0902" x2="539.0902" y1="173.2051" y2="173.2051" /><line stroke="green" stroke-width="0.2" x1="0.0" x2="536.0" y1="11.547" y2="11.547" /><line stroke="green" stroke-width="0.2" x1="3.0902" x2="539.0902" y1="23.094" y2="23.094" /><line stroke="green" stroke-width="0.2" x1="3.0902" x2="539.0902" y1="34.641" y2="34.641" /><line stroke="green" stroke-width="0.2" x1="0.0" x2="536.0" y1="46.188" y2="46.188" /><line stroke="green" stroke-width="0.2" x1="0.0" x2="536.0" y1="57.735" y2="57.735" /><line stroke="green" stroke-width="0.2" x1="3.0902" x2="539.0902" y1="69.282" y2="69.282" /><line stroke="green" stroke-width="0.2" x1="3.0902" x2="539.0902" y1="80.829" y2="80.829" /><line stroke="green" stroke-width="0.2" x1="0.0" x2="536.0" y1="92.376" y2="92.376" /><line stroke="green" stroke-width="0.2" x1="0.0" x2="536.0" y1="103.923" y2="103.923" /><line stroke="green" stroke-width="0.2" x1="3.0902" x2="539.0902" y1="115.4701" y2="115.4701" /><line stroke="green" stroke-width="0.2" x1="3.0902" x2="539.0902" y1="127.0171" y2="127.0171" /><line stroke="green" stroke-width="0.2" x1="0.0" x2="536.0" y1="138.5641" y2="138.5641" /><line stroke="green" stroke-width="0.2" x1="0.0" x2="536.0" y1="150.1111" y2="150.1111" /><line stroke="green" stroke-width="0.2" x1="3.0902" x2="539.0902" y1="161.6581" y2="161.6581" /><line stroke="black" stroke-width="0.2" x1="0.0" x2="0.0" y1="0.0" y2="11.547" /><line stroke="black" stroke-width="0.2" x1="536.0" x2="536.0" y1="0.0" y2="11.547" /><line stroke="black" stroke-width="0.2" x1="0.0" x2="3.0902" y1="11.547" y2="23.094" /><line stroke="black" stroke-width="0.2" x1="536.0" x2="539.0902" y1="11.547" y2="23.094" /><line stroke="black" stroke-width="0.2" x1="3.0902" x2="3.0902" y1="23.094" y2="34.641" /><line stroke="black" stroke-width="0.2" x1="539.0902" x2="539.0902" y1="23.094" y2="34.641" /><line stroke="black" stroke-width="0.2" x1="3.0902" x2="0.0" y1="34.641" y2="46.188" /><line stroke="black" stroke-width="0.2" x1="539.0902" x2="536.0" y1="34.641" y2="46.188" /><line stroke="black" stroke-width="0.2" x1="0.0" x2="0.0" y1="46.188" y2="57.735" /><line stroke="black" stroke-width="0.2" x1="536.0" x2="536.0" y1="46.188" y2="57.735" /><line stroke="black" stroke-width="0.2" x1="0.0" x2="3.0902" y1="57.735" y2="69.282" /><line stroke="black" stroke-width="0.2" x1="536.0" x2="539.0902" y1="57.735" y2="69.282" /><line stroke="black" stroke-width="0.2" x1="3.0902" x2="3.0902" y1="69.282" y2="80.829" /><line stroke="black" stroke-width="0.2" x1="539.0902" x2="539.0902" y1="69.282" y2="80.829" /><line stroke="black" stroke-width="0.2" x1="3.0902" x2="0.0" y1="80.829" y2="92.376" /><line stroke="black" stroke-width="0.2" x1="539.0902" x2="536.0" y1="80.829" y2="92.376" /><line stroke="black" stroke-width="0.2" x1="0.0" x2="0.0" y1="92.376" y2="103.923" /><line stroke="black" stroke-width="0.2" x1="536.0" x2="536.0" y1="92.376" y2="103.923" /><line stroke="black" stroke-width="0.2" x1="0.0" x2="3.0902" y1="103.923" y2="115.4701" /><line stroke="black" stroke-width="0.2" x1="536.0" x2="539.0902" y1="103.923" y2="115.4701" /><line stroke="black" stroke-width="0.2" x1="3.0902" x2="3.0902" y1="115.4701" y2="127.0171" /><line stroke="black" stroke-width="0.2" x1="539.0902" x2="539.0902" y1="115.4701" y2="127.0171" /><line stroke="black" stroke-width="0.2" x1="3.0902" x2="0.0" y1="127.0171" y2="138.5641" /><line stroke="black" stroke-width="0.2" x1="539.0902" x2="536.0" y1="127.0171" y2="138.5641" /><line stroke="black" stroke-width="0.2" x1="0.0" x2="0.0" y1="138.5641" y2="150.1111" /><line stroke="black" stroke-width="0.2" x1="536.0" x2="536.0" y1="138.5641" y2="150.1111" /><line stroke="black" stroke-width="0.2" x1="0.0" x2="3.0902" y1="150.1111" y2="161.6581" /><line stroke="black" stroke-width="0.2" x1="536.0" x2="539.0902" y1="150.1111" y2="161.6581" /><line stroke="black" stroke-width="0.2" x1="3.0902" x2="3.0902" y1="161.6581" y2="173.2051" /><line stroke="black" stroke-width="0.2" x1="539.0902" x2="539.0902" y1="161.6581" y2="173.2051" /><line stroke="black" stroke-width="0.2" x1="40.0" x2="40.0" y1="0.0" y2="11.547" /><line stroke="black" stroke-width="0.2" x1="40.0" x2="36.4" y1="11.547" y2="23.094" /><line stroke="green" stroke-width="0.2" x1="36.4" x2="36.4" y1="23.094" y2="34.641" /><line stroke="black" stroke-width="0.2" x1="36.4" x2="40.0" y1="34.641" y2="46.188" /><line stroke="black" stroke-width="0.2" x1="40.0" x2="40.0" y1="46.188" y2="57.735" /><line stroke="black" stroke-width="0.2" x1="40.0" x2="36.4" y1="57.735" y2="69.282" /><line stroke="green" stroke-width="0.2" x1="36.4" x2="36.4" y1="69.282" y2="80.829" /><line stroke="black" stroke-width="0.2" x1="36.4" x2="40.0" y1="80.829" y2="92.376" /><line stroke="black" stroke-width="0.2" x1="40.0" x2="40.0" y1="92.376" y2="103.923" /><line stroke="black" stroke-width="0.2" x1="40.0" x2="36.4" y1="103.923" y2="115.4701" /><line stroke="green" stroke-width="0.2" x1="36.4" x2="36.4" y1="115.4701" y2="127.0171" /><line stroke="black" stroke-width="0.2" x1="36.4" x2="40.0" y1="127.0171" y2="138.5641" /><line stroke="black" stroke-width="0.2" x1="40.0" x2="40.0" y1="138.5641" y2="150.1111" /><line stroke="black" stroke-width="0.2" x1="40.0" x2="36.4" y1="150.1111" y2="161.6581" /><line stroke="green" stroke-width="0.2" x1="36.4" x2="36.4" y1="161.6581" y2="173.2051" /><line stroke="green" stroke-width="0.2" x1="67.2098" x2="67.2098" y1="0.0" y2="11.547" /><line stroke="black" stroke-width="0.2" x1="67.2098" x2="69.7098" y1="11.547" y2="23.094" /><line stroke="black" stroke-width="0.2" x1="69.7098" x2="69.7098" y1="23.094" y2="34.641" /><line stroke="black" stroke-width="0.2" x1="69.7098" x2="67.2098" y1="34.641" y2="46.188" /><line stroke="green" stroke-width="0.2" x1="67.2098" x2="67.2098" y1="46.188" y2="57.735" /><line stroke="black" stroke-width="0.2" x1="67.2098" x2="69.7098" y1="57.735" y2="69.282" /><line stroke="black" stroke-width="0.2" x1="69.7098" x2="69.7098" y1="69.282" y2="80.829" /><line stroke="black" stroke-width="0.2" x1="69.7098" x2="67.2098" y1="80.829" y2="92.376" /><line stroke="green" stroke-width="0.2" x1="67.2098" x2="67.2098" y1="92.376" y2="103.923" /><line stroke="black" stroke-width="0.2" x1="67.2098" x2="69.7098" y1="103.923" y2="115.4701" /><line stroke="black" stroke-width="0.2" x1="69.7098" x2="69.7098" y1="115.4701" y2="127.0171" /><line stroke="black" stroke-width="0.2" x1="69.7098" x2="67.2098" y1="127.0171" y2="138.5641" /><line stroke="green" stroke-width="0.2" x1="67.2098" x2="67.2098" y1="138.5641" y2="150.1111" /><line stroke="black" stroke-width="0.2" x1="67.2098" x2="69.7098" y1="150.1111" y2="161.6581" /><line stroke="black" stroke-width="0.2" x1="69.7098" x2="69.7098" y1="161.6581" y2="173.2051" /><line stroke="black" stroke-width="0.2" x1="94.4197" x2="94.4197" y1="0.0" y2="11.547" /><line stroke="black" stroke-width="0.2" x1="94.4197" x2="91.6197" y1="11.547" y2="23.094" /><line stroke="green" stroke-width="0.2" x1="91.6197" x2="91.6197" y1="23.094" y2="34.641" /><line stroke="black" stroke-width="0.2" x1="91.6197" x2="94.4197" y1="34.641" y2="46.188" /><line stroke="black" stroke-width="0.2" x1="94.4197" x2="94.4197" y1="46.188" y2="57.735" /><line stroke="black" stroke-width="0.2" x1="94.4197" x2="91.6197" y1="57.735" y2="69.282" /><line stroke="green" stroke-width="0.2" x1="91.6197" x2="91.6197" y1="69.282" y2="80.829" /><line stroke="black" stroke-width="0.2" x1="91.6197" x2="94.4197" y1="80.829" y2="92.376" /><line stroke="black" stroke-width="0.2" x1="94.4197" x2="94.4197" y1="92.376" y2="103.923" /><line stroke="black" stroke-width="0.2" x1="94.4197" x2="91.6197" y1="103.923" y2="115.4701" /><line stroke="green" stroke-width="0.2" x1="91.6197" x2="91.6197" y1="115.4701" y2="127.0171" /><line stroke="black" stroke-width="0.2" x1="91.6197" x2="94.4197" y1="127.0171" y2="138.5641" /><line stroke="black" stroke-width="0.2" x1="94.4197" x2="94.4197" y1="138.5641" y2="150.1111" /><line stroke="black" stroke-width="0.2" x1="94.4197" x2="91.6197" y1="150.1111" y2="161.6581" /><line stroke="green" stroke-width="0.2" x1="91.6197" x2="91.6197" y1="161.6581" y2="173.2051" /><line stroke="green" stroke-width="0.2" x1="112.5746" x2="112.5746" y1="0.0" y2="11.547" /><line stroke="black" stroke-width="0.2" x1="112.5746" x2="113.5295" y1="11.547" y2="23.094" /><line stroke="black" stroke-width="0.2" x1="113.5295" x2="113.5295" y1="23.094" y2="34.641" /><line stroke="black" stroke-width="0.2" x1="113.5295" x2="112.5746" y1="34.641" y2="46.188" /><line stroke="green" stroke-width="0.2" x1="112.5746" x2="112.5746" y1="46.188" y2="57.735" /><line stroke="black" stroke-width="0.2" x1="112.5746" x2="113.5295" y1="57.735" y2="69.282" /><line stroke="black" stroke-width="0.2" x1="113.5295" x2="113.5295" y1="69.282" y2="80.829" /><line stroke="black" stroke-width="0.2" x1="113.5295" x2="112.5746" y1="80.829" y2="92.376" /><line stroke="green" stroke-width="0.2" x1="112.5746" x2="112.5746" y1="92.376" y2="103.923" /><line stroke="black" stroke-width="0.2" x1="112.5746" x2="113.5295" y1="103.923" y2="115.4701" /><line stroke="black" stroke-width="0.2" x1="113.5295" x2="113.5295" y1="115.4701" y2="127.0171" /><line stroke="black" stroke-width="0.2" x1="113.5295" x2="112.5746" y1="127.0171" y2="138.5641" /><line stroke="green" stroke-width="0.2" x1="112.5746" x2="112.5746" y1="138.5641" y2="150.1111" /><line stroke="black" stroke-width="0.2" x1="112.5746" x2="113.5295" y1="150.1111" y2="161.6581" /><line stroke="black" stroke-width="0.2" x1="113.5295" x2="113.5295" y1="161.6581" y2="173.2051" /><line stroke="black" stroke-width="0.2" x1="130.7295" x2="130.7295" y1="0.0" y2="11.547" /><line stroke="black" stroke-width="0.2" x1="130.7295" x2="128.7295" y1="11.547" y2="23.094" /><line stroke="green" stroke-width="0.2" x1="128.7295" x2="128.7295" y1="23.094" y2="34.641" /><line stroke="black" stroke-width="0.2" x1="128.7295" x2="130.7295" y1="34.641" y2="46.188" /><line stroke="black" stroke-width="0.2" x1="130.7295" x2="130.7295" y1="46.188" y2="57.735" /><line stroke="black" stroke-width="0.2" x1="130.7295" x2="128.7295" y1="57.735" y2="69.282" /><line stroke="green" stroke-width="0.2" x1="128.7295" x2="128.7295" y1="69.282" y2="80.829" /><line stroke="black" stroke-width="0.2" x1="128.7295" x2="130.7295" y1="80.829" y2="92.376" /><line stroke="black" stroke-width="0.2" x1="130.7295" x2="130.7295" y1="92.376" y2="103.923" /><line stroke="black" stroke-width="0.2" x1="130.7295" x2="128.7295" y1="103.923" y2="115.4701" /><line stroke="green" stroke-width="0.2" x1="128.7295" x2="128.7295" y1="115.4701" y2="127.0171" /><line stroke="black" stroke-width="0.2" x1="128.7295" x2="130.7295" y1="127.0171" y2="138.5641" /><line stroke="black" stroke-width="0.2" x1="130.7295" x2="130.7295" y1="138.5641" y2="150.1111" /><line stroke="black" stroke-width="0.2" x1="130.7295" x2="128.7295" y1="150.1111" y2="161.6581" /><line stroke="green" stroke-width="0.2" x1="128.7295" x2="128.7295" y1="161.6581" y2="173.2051" /><line stroke="green" stroke-width="0.2" x1="144.8844" x2="144.8844" y1="0.0" y2="11.547" /><line stroke="black" stroke-width="0.2" x1="144.8844" x2="143.9295" y1="11.547" y2="23.094" /><line stroke="black" stroke-width="0.2" x1="143.9295" x2="143.9295" y1="23.094" y2="34.641" /><line stroke="black" stroke-width="0.2" x1="143.9295" x2="144.8844" y1="34.641" y2="46.188" /><line stroke="green" stroke-width="0.2" x1="144.8844" x2="144.8844" y1="46.188" y2="57.735" /><line stroke="black" stroke-width="0.2" x1="144.8844" x2="143.9295" y1="57.735" y2="69.282" /><line stroke="black" stroke-width="0.2" x1="143.9295" x2="143.9295" y1="69.282" y2="80.829" /><line stroke="black" stroke-width="0.2" x1="143.9295" x2="144.8844" y1="80.829" y2="92.376" /><line stroke="green" stroke-width="0.2" x1="144.8844" x2="144.8844" y1="92.376" y2="103.923" /><line stroke="black" stroke-width="0.2" x1="144.8844" x2="143.9295" y1="103.923" y2="115.4701" /><line stroke="black" stroke-width="0.2" x1="143.9295" x2="143.9295" y1="115.4701" y2="127.0171" /><line stroke="black" stroke-width="0.2" x1="143.9295" x2="144.8844" y1="127.0171" y2="138.5641" /><line stroke="green" stroke-width="0.2" x1="144.8844" x2="144.8844" y1="138.5641" y2="150.1111" /><line stroke="black" stroke-width="0.2" x1="144.8844" x2="143.9295" y1="150.1111" y2="161.6581" /><line stroke="black" stroke-width="0.2" x1="143.9295" x2="143.9295" y1="161.6581" y2="173.2051" /><line stroke="black" stroke-width="0.2" x1="159.0393" x2="159.0393" y1="0.0" y2="11.547" /><line stroke="black" stroke-width="0.2" x1="159.0393" x2="157.8393" y1="11.547" y2="23.094" /><line stroke="green" stroke-width="0.2" x1="157.8393" x2="157.8393" y1="23.094" y2="34.641" /><line stroke="black" stroke-width="0.2" x1="157.8393" x2="159.0393" y1="34.641" y2="46.188" /><line stroke="black" stroke-width="0.2" x1="159.0393" x2="159.0393" y1="46.188" y2="57.735" /><line stroke="black" stroke-width="0.2" x1="159.0393" x2="157.8393" y1="57.735" y2="69.282" /><line stroke="green" stroke-width="0.2" x1="157.8393" x2="157.8393" y1="69.282" y2="80.829" /><line stroke="black" stroke-width="0.2" x1="157.8393" x2="159.0393" y1="80.829" y2="92.376" /><line stroke="black" stroke-width="0.2" x1="159.0393" x2="159.0393" y1="92.376" y2="103.923" /><line stroke="black" stroke-width="0.2" x1="159.0393" x2="157.8393" y1="103.923" y2="115.4701" /><line stroke="green" stroke-width="0.2" x1="157.8393" x2="157.8393" y1="115.4701" y2="127.0171" /><line stroke="black" stroke-width="0.2" x1="157.8393" x2="159.0393" y1="127.0171" y2="138.5641" /><line stroke="black" stroke-width="0.2" x1="159.0393" x2="159.0393" y1="138.5641" y2="150.1111" /><line stroke="black" stroke-width="0.2" x1="159.0393" x2="157.8393" y1="150.1111" y2="161.6581" /><line stroke="green" stroke-width="0.2" x1="157.8393" x2="157.8393" y1="161.6581" y2="173.2051" /><line stroke="green" stroke-width="0.2" x1="174.2492" x2="174.2492" y1="0.0" y2="11.547" /><line stroke="black" stroke-width="0.2" x1="174.2492" x2="171.7492" y1="11.547" y2="23.094" /><line stroke="black" stroke-width="0.2" x1="171.7492" x2="171.7492" y1="23.094" y2="34.641" /><line stroke="black" stroke-width="0.2" x1="171.7492" x2="174.2492" y1="34.641" y2="46.188" /><line stroke="green" stroke-width="0.2" x1="174.2492" x2="174.2492" y1="46.188" y2="57.735" /><line stroke="black" stroke-width="0.2" x1="174.2492" x2="171.7492" y1="57.735" y2="69.282" /><line stroke="black" stroke-width="0.2" x1="171.7492" x2="171.7492" y1="69.282" y2="80.829" /><line stroke="black" stroke-width="0.2" x1="171.7492" x2="174.2492" y1="80.829" y2="92.376" /><line stroke="green" stroke-width="0.2" x1="174.2492" x2="174.2492" y1="92.376" y2="103.923" /><line stroke="black" stroke-width="0.2" x1="174.2492" x2="171.7492" y1="103.923" y2="115.4701" /><line stroke="black" stroke-width="0.2" x1="171.7492" x2="171.7492" y1="115.4701" y2="127.0171" /><line stroke="black" stroke-width="0.2" x1="171.7492" x2="174.2492" y1="127.0171" y2="138.5641" /><line stroke="green" stroke-width="0.2" x1="174.2492" x2="174.2492" y1="138.5641" y2="150.1111" /><line stroke="black" stroke-width="0.2" x1="174.2492" x2="171.7492" y1="150.1111" y2="161.6581" /><line stroke="black" stroke-width="0.2" x1="171.7492" x2="171.7492" y1="161.6581" y2="173.2051" /><line stroke="black" stroke-width="0.2" x1="189.459" x2="189.459" y1="0.0" y2="11.547" /><line stroke="black" stroke-width="0.2" x1="189.459" x2="189.059" y1="11.547" y2="23.094" /><line stroke="green" stroke-width="0.2" x1="189.059" x2="189.059" y1="23.094" y2="34.641" /><line stroke="black" stroke-width="0.2" x1="189.059" x2="189.459" y1="34.641" y2="46.188" /><line stroke="black" stroke-width="0.2" x1="189.459" x2="189.459" y1="46.188" y2="57.735" /><line stroke="black" stroke-width="0.2" x1="189.459" x2="189.059" y1="57.735" y2="69.282" /><line stroke="green" stroke-width="0.2" x1="189.059" x2="189.059" y1="69.282" y2="80.829" /><line stroke="black" stroke-width="0.2" x1="189.059" x2="189.459" y1="80.829" y2="92.376" /><line stroke="black" stroke-width="0.2" x1="189.459" x2="189.459" y1="92.376" y2="103.923" /><line stroke="black" stroke-width="0.2" x1="189.459" x2="189.059" y1="103.923" y2="115.4701" /><line stroke="green" stroke-width="0.2" x1="189.059" x2="189.059" y1="115.4701" y2="127.0171" /><line stroke="black" stroke-width="0.2" x1="189.059" x2="189.459" y1="127.0171" y2="138.5641" /><line stroke="black" stroke-width="0.2" x1="189.459" x2="189.459" y1="138.5641" y2="150.1111" /><line stroke="black" stroke-width="0.2" x1="189.459" x2="189.059" y1="150.1111" y2="161.6581" /><line stroke="green" stroke-width="0.2" x1="189.059" x2="189.059" y1="161.6581" y2="173.2051" /><line stroke="green" stroke-width="0.2" x1="209.459" x2="209.459" y1="0.0" y2="11.547" /><line stroke="black" stroke-width="0.2" x1="209.459" x2="206.3688" y1="11.547" y2="23.094" /><line stroke="black" stroke-width="0.2" x1="206.3688" x2="206.3688" y1="23.094" y2="34.641" /><line stroke="black" stroke-width="0.2" x1="206.3688" x2="209.459" y1="34.641" y2="46.188" /><line stroke="green" stroke-width="0.2" x1="209.459" x2="209.459" y1="46.188" y2="57.735" /><line stroke="black" stroke-width="0.2" x1="209.459" x2="206.3688" y1="57.735" y2="69.282" /><line stroke="black" stroke-width="0.2" x1="206.3688" x2="206.3688" y1="69.282" y2="80.829" /><line stroke="black" stroke-width="0.2" x1="206.3688" x2="209.459" y1="80.829" y2="92.376" /><line stroke="green" stroke-width="0.2" x1="209.459" x2="209.459" y1="92.376" y2="103.923" /><line stroke="black" stroke-width="0.2" x1="209.459" x2="206.3688" y1="103.923" y2="115.4701" /><line stroke="black" stroke-width="0.2" x1="206.3688" x2="206.3688" y1="115.4701" y2="127.0171" /><line stroke="black" stroke-width="0.2" x1="206.3688" x2="209.459" y1="127.0171" y2="138.5641" /><line stroke="green" stroke-width="0.2" x1="209.459" x2="209.459" y1="138.5641" y2="150.1111" /><line stroke="black" stroke-width="0.2" x1="209.459" x2="206.3688" y1="150.1111" y2="161.6581" /><line stroke="black" stroke-width="0.2" x1="206.3688" x2="206.3688" y1="161.6581" y2="173.2051" /><line stroke="black" stroke-width="0.2" x1="229.459" x2="229.459" y1="0.0" y2="11.547" /><line stroke="black" stroke-width="0.2" x1="229.459" x2="229.859" y1="11.547" y2="23.094" /><line stroke="green" stroke-width="0.2" x1="229.859" x2="229.859" y1="23.094" y2="34.641" /><line stroke="black" stroke-width="0.2" x1="229.859" x2="229.459" y1="34.641" y2="46.188" /><line stroke="black" stroke-width="0.2" x1="229.459" x2="229.459" y1="46.188" y2="57.735" /><line stroke="black" stroke-width="0.2" x1="229.459" x2="229.859" y1="57.735" y2="69.282" /><line stroke="green" stroke-width="0.2" x1="229.859" x2="229.859" y1="69.282" y2="80.829" /><line stroke="black" stroke-width="0.2" x1="229.859" x2="229.459" y1="80.829" y2="92.376" /><line stroke="black" stroke-width="0.2" x1="229.459" x2="229.459" y1="92.376" y2="103.923" /><line stroke="black" stroke-width="0.2" x1="229.459" x2="229.859" y1="103.923" y2="115.4701" /><line stroke="green" stroke-width="0.2" x1="229.859" x2="229.859" y1="115.4701" y2="127.0171" /><line stroke="black" stroke-width="0.2" x1="229.859" x2="229.459" y1="127.0171" y2="138.5641" /><line stroke="black" stroke-width="0.2" x1="229.459" x2="229.459" y1="138.5641" y2="150.1111" /><line stroke="black" stroke-width="0.2" x1="229.459" x2="229.859" y1="150.1111" y2="161.6581" /><line stroke="green" stroke-width="0.2" x1="229.859" x2="229.859" y1="161.6581" y2="173.2051" /><line stroke="green" stroke-width="0.2" x1="255.8492" x2="255.8492" y1="0.0" y2="11.547" /><line stroke="black" stroke-width="0.2" x1="255.8492" x2="253.3492" y1="11.547" y2="23.094" /><line stroke="black" stroke-width="0.2" x1="253.3492" x2="253.3492" y1="23.094" y2="34.641" /><line stroke="black" stroke-width="0.2" x1="253.3492" x2="255.8492" y1="34.641" y2="46.188" /><line stroke="green" stroke-width="0.2" x1="255.8492" x2="255.8492" y1="46.188" y2="57.735" /><line stroke="black" stroke-width="0.2" x1="255.8492" x2="253.3492" y1="57.735" y2="69.282" /><line stroke="black" stroke-width="0.2" x1="253.3492" x2="253.3492" y1="69.282" y2="80.829" /><line stroke="black" stroke-width="0.2" x1="253.3492" x2="255.8492" y1="80.829" y2="92.376" /><line stroke="green" stroke-width="0.2" x1="255.8492" x2="255.8492" y1="92.376" y2="103.923" /><line stroke="black" stroke-width="0.2" x1="255.8492" x2="253.3492" y1="103.923" y2="115.4701" /><line stroke="black" stroke-width="0.2" x1="253.3492" x2="253.3492" y1="115.4701" y2="127.0171" /><line stroke="black" stroke-width="0.2" x1="253.3492" x2="255.8492" y1="127.0171" y2="138.5641" /><line stroke="green" stroke-width="0.2" x1="255.8492" x2="255.8492" y1="138.5641" y2="150.1111" /><line stroke="black" stroke-width="0.2" x1="255.8492" x2="253.3492" y1="150.1111" y2="161.6581" /><line stroke="black" stroke-width="0.2" x1="253.3492" x2="253.3492" y1="161.6581" y2="173.2051" /><line stroke="black" stroke-width="0.2" x1="282.2393" x2="282.2393" y1="0.0" y2="11.547" /><line stroke="black" stroke-width="0.2" x1="282.2393" x2="283.4393" y1="11.547" y2="23.094" /><line stroke="green" stroke-width="0.2" x1="283.4393" x2="283.4393" y1="23.094" y2="34.641" /><line stroke="black" stroke-width="0.2" x1="283.4393" x2="282.2393" y1="34.641" y2="46.188" /><line stroke="black" stroke-width="0.2" x1="282.2393" x2="282.2393" y1="46.188" y2="57.735" /><line stroke="black" stroke-width="0.2" x1="282.2393" x2="283.4393" y1="57.735" y2="69.282" /><line stroke="green" stroke-width="0.2" x1="283.4393" x2="283.4393" y1="69.282" y2="80.829" /><line stroke="black" stroke-width="0.2" x1="283.4393" x2="282.2393" y1="80.829" y2="92.376" /><line stroke="black" stroke-width="0.2" x1="282.2393" x2="282.2393" y1="92.376" y2="103.923" /><line stroke="black" stroke-width="0.2" x1="282.2393" x2="283.4393" y1="103.923" y2="115.4701" /><line stroke="green" stroke-width="0.2" x1="283.4393" x2="283.4393" y1="115.4701" y2="127.0171" /><line stroke="black" stroke-width="0.2" x1="283.4393" x2="282.2393" y1="127.0171" y2="138.5641" /><line stroke="black" stroke-width="0.2" x1="282.2393" x2="282.2393" y1="138.5641" y2="150.1111" /><line stroke="black" stroke-width="0.2" x1="282.2393" x2="283.4393" y1="150.1111" y2="161.6581" /><line stroke="green" stroke-width="0.2" x1="283.4393" x2="283.4393" y1="161.6581" y2="173.2051" /><line stroke="green" stroke-width="0.2" x1="314.4844" x2="314.4844" y1="0.0" y2="11.547" /><line stroke="black" stroke-width="0.2" x1="314.4844" x2="313.5295" y1="11.547" y2="23.094" /><line stroke="black" stroke-width="0.2" x1="313.5295" x2="313.5295" y1="23.094" y2="34.641" /><line stroke="black" stroke-width="0.2" x1="313.5295" x2="314.4844" y1="34.641" y2="46.188" /><line stroke="green" stroke-width="0.2" x1="314.4844" x2="314.4844" y1="46.188" y2="57.735" /><line stroke="black" stroke-width="0.2" x1="314.4844" x2="313.5295" y1="57.735" y2="69.282" /><line stroke="black" stroke-width="0.2" x1="313.5295" x2="313.5295" y1="69.282" y2="80.829" /><line stroke="black" stroke-width="0.2" x1="313.5295" x2="314.4844" y1="80.829" y2="92.376" /><line stroke="green" stroke-width="0.2" x1="314.4844" x2="314.4844" y1="92.376" y2="103.923" /><line stroke="black" stroke-width="0.2" x1="314.4844" x2="313.5295" y1="103.923" y2="115.4701" /><line stroke="black" stroke-width="0.2" x1="313.5295" x2="313.5295" y1="115.4701" y2="127.0171" /><line stroke="black" stroke-width="0.2" x1="313.5295" x2="314.4844" y1="127.0171" y2="138.5641" /><line stroke="green" stroke-width="0.2" x1="314.4844" x2="314.4844" y1="138.5641" y2="150.1111" /><line stroke="black" stroke-width="0.2" x1="314.4844" x2="313.5295" y1="150.1111" y2="161.6581" /><line stroke="black" stroke-width="0.2" x1="313.5295" x2="313.5295" y1="161.6581" y2="173.2051" /><line stroke="black" stroke-width="0.2" x1="346.7295" x2="346.7295" y1="0.0" y2="11.547" /><line stroke="black" stroke-width="0.2" x1="346.7295" x2="348.7295" y1="11.547" y2="23.094" /><line stroke="green" stroke-width="0.2" x1="348.7295" x2="348.7295" y1="23.094" y2="34.641" /><line stroke="black" stroke-width="0.2" x1="348.7295" x2="346.7295" y1="34.641" y2="46.188" /><line stroke="black" stroke-width="0.2" x1="346.7295" x2="346.7295" y1="46.188" y2="57.735" /><line stroke="black" stroke-width="0.2" x1="346.7295" x2="348.7295" y1="57.735" y2="69.282" /><line stroke="green" stroke-width="0.2" x1="348.7295" x2="348.7295" y1="69.282" y2="80.829" /><line stroke="black" stroke-width="0.2" x1="348.7295" x2="346.7295" y1="80.829" y2="92.376" /><line stroke="black" stroke-width="0.2" x1="346.7295" x2="346.7295" y1="92.376" y2="103.923" /><line stroke="black" stroke-width="0.2" x1="346.7295" x2="348.7295" y1="103.923" y2="115.4701" /><line stroke="green" stroke-width="0.2" x1="348.7295" x2="348.7295" y1="115.4701" y2="127.0171" /><line stroke="black" stroke-width="0.2" x1="348.7295" x2="346.7295" y1="127.0171" y2="138.5641" /><line stroke="black" stroke-width="0.2" x1="346.7295" x2="346.7295" y1="138.5641" y2="150.1111" /><line stroke="black" stroke-width="0.2" x1="346.7295" x2="348.7295" y1="150.1111" y2="161.6581" /><line stroke="green" stroke-width="0.2" x1="348.7295" x2="348.7295" y1="161.6581" y2="173.2051" /><line stroke="green" stroke-width="0.2" x1="382.9746" x2="382.9746" y1="0.0" y2="11.547" /><line stroke="black" stroke-width="0.2" x1="382.9746" x2="383.9295" y1="11.547" y2="23.094" /><line stroke="black" stroke-width="0.2" x1="383.9295" x2="383.9295" y1="23.094" y2="34.641" /><line stroke="black" stroke-width="0.2" x1="383.9295" x2="382.9746" y1="34.641" y2="46.188" /><line stroke="green" stroke-width="0.2" x1="382.9746" x2="382.9746" y1="46.188" y2="57.735" /><line stroke="black" stroke-width="0.2" x1="382.9746" x2="383.9295" y1="57.735" y2="69.282" /><line stroke="black" stroke-width="0.2" x1="383.9295" x2="383.9295" y1="69.282" y2="80.829" /><line stroke="black" stroke-width="0.2" x1="383.9295" x2="382.9746" y1="80.829" y2="92.376" /><line stroke="green" stroke-width="0.2" x1="382.9746" x2="382.9746" y1="92.376" y2="103.923" /><line stroke="black" stroke-width="0.2" x1="382.9746" x2="383.9295" y1="103.923" y2="115.4701" /><line stroke="black" stroke-width="0.2" x1="383.9295" x2="383.9295" y1="115.4701" y2="127.0171" /><line stroke="black" stroke-width="0.2" x1="383.9295" x2="382.9746" y1="127.0171" y2="138.5641" /><line stroke="green" stroke-width="0.2" x1="382.9746" x2="382.9746" y1="138.5641" y2="150.1111" /><line stroke="black" stroke-width="0.2" x1="382.9746" x2="383.9295" y1="150.1111" y2="161.6581" /><line stroke="black" stroke-width="0.2" x1="383.9295" x2="383.9295" y1="161.6581" y2="173.2051" /><line stroke="black" stroke-width="0.2" x1="419.2197" x2="419.2197" y1="0.0" y2="11.547" /><line stroke="black" stroke-width="0.2" x1="419.2197" x2="422.0197" y1="11.547" y2="23.094" /><line stroke="green" stroke-width="0.2" x1="422.0197" x2="422.0197" y1="23.094" y2="34.641" /><line stroke="black" stroke-width="0.2" x1="422.0197" x2="419.2197" y1="34.641" y2="46.188" /><line stroke="black" stroke-width="0.2" x1="419.2197" x2="419.2197" y1="46.188" y2="57.735" /><line stroke="black" stroke-width="0.2" x1="419.2197" x2="422.0197" y1="57.735" y2="69.282" /><line stroke="green" stroke-width="0.2" x1="422.0197" x2="422.0197" y1="69.282" y2="80.829" /><line stroke="black" stroke-width="0.2" x1="422.0197" x2="419.2197" y1="80.829" y2="92.376" /><line stroke="black" stroke-width="0.2" x1="419.2197" x2="419.2197" y1="92.376" y2="103.923" /><line stroke="black" stroke-width="0.2" x1="419.2197" x2="422.0197" y1="103.923" y2="115.4701" /><line stroke="green" stroke-width="0.2" x1="422.0197" x2="422.0197" y1="115.4701" y2="127.0171" /><line stroke="black" stroke-width="0.2" x1="422.0197" x2="419.2197" y1="127.0171" y2="138.5641" /><line stroke="black" stroke-width="0.2" x1="419.2197" x2="419.2197" y1="138.5641" y2="150.1111" /><line stroke="black" stroke-width="0.2" x1="419.2197" x2="422.0197" y1="150.1111" y2="161.6581" /><line stroke="green" stroke-width="0.2" x1="422.0197" x2="422.0197" y1="161.6581" y2="173.2051" /><line stroke="green" stroke-width="0.2" x1="457.6098" x2="457.6098" y1="0.0" y2="11.547" /><line stroke="black" stroke-width="0.2" x1="457.6098" x2="460.1098" y1="11.547" y2="23.094" /><line stroke="black" stroke-width="0.2" x1="460.1098" x2="460.1098" y1="23.094" y2="34.641" /><line stroke="black" stroke-width="0.2" x1="460.1098" x2="457.6098" y1="34.641" y2="46.188" /><line stroke="green" stroke-width="0.2" x1="457.6098" x2="457.6098" y1="46.188" y2="57.735" /><line stroke="black" stroke-width="0.2" x1="457.6098" x2="460.1098" y1="57.735" y2="69.282" /><line stroke="black" stroke-width="0.2" x1="460.1098" x2="460.1098" y1="69.282" y2="80.829" /><line stroke="black" stroke-width="0.2" x1="460.1098" x2="457.6098" y1="80.829" y2="92.376" /><line stroke="green" stroke-width="0.2" x1="457.6098" x2="457.6098" y1="92.376" y2="103.923" /><line stroke="black" stroke-width="0.2" x1="457.6098" x2="460.1098" y1="103.923" y2="115.4701" /><line stroke="black" stroke-width="0.2" x1="460.1098" x2="460.1098" y1="115.4701" y2="127.0171" /><line stroke="black" stroke-width="0.2" x1="460.1098" x2="457.6098" y1="127.0171" y2="138.5641" /><line stroke="green" stroke-width="0.2" x1="457.6098" x2="457.6098" y1="138.5641" y2="150.1111" /><line stroke="black" stroke-width="0.2" x1="457.6098" x2="460.1098" y1="150.1111" y2="161.6581" /><line stroke="black" stroke-width="0.2" x1="460.1098" x2="460.1098" y1="161.6581" y2="173.2051" /><line stroke="black" stroke-width="0.2" x1="496.0" x2="496.0" y1="0.0" y2="11.547" /><line stroke="black" stroke-width="0.2" x1="496.0" x2="499.6" y1="11.547" y2="23.094" /><line stroke="green" stroke-width="0.2" x1="499.6" x2="499.6" y1="23.094" y2="34.641" /><line stroke="black" stroke-width="0.2" x1="499.6" x2="496.0" y1="34.641" y2="46.188" /><line stroke="black" stroke-width="0.2" x1="496.0" x2="496.0" y1="46.188" y2="57.735" /><line stroke="black" stroke-width="0.2" x1="496.0" x2="499.6" y1="57.735" y2="69.282" /><line stroke="green" stroke-width="0.2" x1="499.6" x2="499.6" y1="69.282" y2="80.829" /><line stroke="black" stroke-width="0.2" x1="499.6" x2="496.0" y1="80.829" y2="92.376" /><line stroke="black" stroke-width="0.2" x1="496.0" x2="496.0" y1="92.376" y2="103.923" /><line stroke="black" stroke-width="0.2" x1="496.0" x2="499.6" y1="103.923" y2="115.4701" /><line stroke="green" stroke-width="0.2" x1="499.6" x2="499.6" y1="115.4701" y2="127.0171" /><line stroke="black" stroke-width="0.2" x1="499.6" x2="496.0" y1="127.0171" y2="138.5641" /><line stroke="black" stroke-width="0.2" x1="496.0" x2="496.0" y1="138.5641" y2="150.1111" /><line stroke="black" stroke-width="0.2" x1="496.0" x2="499.6" y1="150.1111" y2="161.6581" /><line stroke="green" stroke-width="0.2" x1="499.6" x2="499.6" y1="161.6581" y2="173.2051" /></svg>